<svg width="599" height="300" xmlns="http://www.w3.org/2000/svg" xmlns:xlink="http://www.w3.org/1999/xlink" overflow="hidden"><defs><clipPath id="clip0"><rect x="241" y="160" width="599" height="300"/></clipPath><clipPath id="clip1"><rect x="242" y="161" width="598" height="299"/></clipPath><clipPath id="clip2"><rect x="242" y="161" width="598" height="299"/></clipPath><clipPath id="clip3"><rect x="242" y="161" width="598" height="299"/></clipPath></defs><g clip-path="url(#clip0)" transform="translate(-241 -160)"><g clip-path="url(#clip1)"><g clip-path="url(#clip2)"><g clip-path="url(#clip3)"><path d="M441.433 310.5C441.43 359.763 401.494 399.697 352.231 399.697 302.971 399.697 263.04 359.765 263.04 310.505 263.04 261.245 302.976 221.313 352.231 221.313 401.487 221.313 441.423 261.25 441.423 310.515" fill="#1A1918" fill-rule="nonzero" fill-opacity="1"/><path d="M353.736 275.796 376.819 332.766 341.956 305.307ZM394.739 345.887 359.233 260.442C358.221 257.981 356.243 256.675 353.731 256.675 351.22 256.675 349.097 257.981 348.08 260.442L309.111 354.164 322.441 354.164 337.864 315.523 383.9 352.714C385.754 354.209 387.09 354.887 388.824 354.887 392.302 354.887 395.342 352.28 395.342 348.518 395.342 347.905 395.123 346.933 394.734 345.887Z" fill="#FFFFFF" fill-rule="nonzero" fill-opacity="1"/><path d="M563.684 337.181C562.762 337.181 561.771 336.947 561.078 336.015L531.512 297.135 531.512 336.792 524.769 336.792 524.769 287.955C524.769 285.962 526.379 284.457 528.218 284.457 529.289 284.457 530.211 284.771 530.899 285.703L560.385 324.503 560.385 285 567.128 285 567.128 333.757C567.147 335.629 565.646 337.162 563.775 337.181 563.743 337.181 563.711 337.181 563.679 337.181M602.689 337.649C595.951 337.649 588.9 336.254 582.317 333.762L583.926 328.166C589.976 330.159 596.564 331.505 602.689 331.505 611.19 331.505 615.635 328.475 615.635 324.199 615.635 320.312 612.187 318.369 600.317 312.767 588.446 307.166 583.772 303.598 583.772 296.596 583.772 287.811 590.509 284.238 603.227 284.238 608.509 284.238 616.682 285.334 621.306 286.729L620.235 292.48C614.712 291.162 609.059 290.46 603.381 290.387 594.421 290.387 590.744 292.097 590.744 296.377 590.744 300.573 593.425 302.357 605.983 308.198 619.238 314.342 622.602 317.452 622.602 323.83 622.602 333.084 613.866 337.674 602.689 337.674M637.791 284.916 644.758 284.916 644.758 336.702 637.791 336.702ZM691.312 312.648 674 312.648 674 330.224 691.312 330.224C697.208 330.224 700.811 326.487 700.811 321.279 700.811 316.38 697.058 312.648 691.312 312.648M687.939 290.253 674 290.253 674 306.817 687.939 306.817C693.53 306.817 697.591 303.239 697.591 298.261 697.591 293.362 694.068 290.253 687.939 290.253M691.387 336.129 670.557 336.129C668.563 336.129 667.034 334.574 667.034 332.631L667.034 287.841C667.055 285.908 668.624 284.351 670.557 284.342L687.789 284.342C698.354 284.342 704.633 289.55 704.633 297.718 704.633 302.203 702.026 306.269 698.045 308.681 703.945 310.475 707.927 315.369 707.927 321.279 707.927 329.521 701.115 336.129 691.382 336.129M728.259 335.556C726.345 335.556 724.77 333.922 724.77 332.058L724.77 283.72 731.747 283.72 731.747 329.207 759.569 329.207 759.569 335.506ZM792.03 335.84C777.778 335.84 769.207 330.558 769.207 319.894 769.207 314.84 772.047 310.017 777.559 307.764 773.074 304.964 770.816 300.997 770.816 296.641 770.816 286.999 778.252 282.409 792.245 282.409 797.882 282.432 803.503 283.032 809.019 284.198L808.251 289.954C802.431 289.022 796.989 288.479 791.707 288.479 782.667 288.479 777.843 290.97 777.843 296.95 777.843 301.694 782.288 305.422 788.188 305.422L800.138 305.422C801.762 305.397 803.098 306.693 803.123 308.317 803.123 308.337 803.123 308.357 803.123 308.377 803.123 310.086 801.828 311.407 800.133 311.407L787.266 311.407C780.524 311.407 776.238 314.746 776.238 319.879 776.238 327.418 783.205 329.676 791.936 329.676 796.685 329.676 803.118 329.058 808.381 327.812L809.377 333.483C803.756 334.999 797.962 335.784 792.14 335.82M486.647 295.166 498.856 325.754 480.418 311.003ZM508.334 332.8 489.557 286.924C489.019 285.603 487.947 284.901 486.647 284.901 485.323 284.877 484.127 285.687 483.657 286.924L463.116 338.616 470.092 337.241 478.25 316.495 502.593 336.463C503.575 337.26 504.278 337.629 505.2 337.629 507.071 337.66 508.613 336.167 508.643 334.296 508.643 334.266 508.644 334.236 508.643 334.206 508.611 333.722 508.504 333.246 508.324 332.795Z" fill="#1A1918" fill-rule="nonzero" fill-opacity="1"/></g></g></g></g></svg>